# xmcd
#
# Track frame offsets: 
#        150
#        10101
#        20926
#        30852
#        41232
#        42064
#        53403
#        64817
#        77907
#        79954
#        94994
#        98036
#        112053
#        127580
#        141036
#        141950
#        155584
#        166887
#        177877
#        187402
#        188535
#        189668
#        200950
#        211868
#        212799
#        213492
#        224349
#        237033
#        240818
#        245614
#        246713
#        259596
#        272413
#        273271
#        285966
#        298660
#        311009
#        323077
#        324815
#        337001
#
# Disc length: 4656 seconds
#
# Revision: 0
# Processed by: cddbd v1.5.2PL0 Copyright (c) Steve Scherf et al.
# Submitted via: ExactAudioCopyFreeDBPlugin 1.0
#
DISCID=4e122e28
DTITLE=Bill Monroe - Castle Studio 1950-1951 - Complete Sessions
DYEAR=2017
DGENRE=Bluegrass
TTITLE0=Blue Grass Ramble (instrumental) (take 1)
TTITLE1=Blue Grass Ramble (instrumental) (take 2)
TTITLE2=Blue Grass Ramble (instrumental) (take 3) OP 1950
TTITLE3=New Mule Skinner Blues (take 1)
TTITLE4=New Mule Skinner Blues (take 2, false start)
TTITLE5=New Mule Skinner Blues (take 3) OP 1950
TTITLE6=New Mule Skinner Blues (take 4)
TTITLE7=My Little Georgia Rose (take 1)
TTITLE8=My Little Georgia Rose (take 2, false start)
TTITLE9=My Little Georgia Rose (take 3)
TTITLE10=My Little Georgia Rose (take 4, fasle start)
TTITLE11=My Little Georgia Rose (take 5) OP 1950
TTITLE12=Memories Of You (take 1)
TTITLE13=Memories Of You (take 2)
TTITLE14=Memories Of You (take 3, false start)
TTITLE15=Memories Of You (take 4) OP 1950
TTITLE16=I'm On My Way To The Old Home (take 1)
TTITLE17=I'm On My Way To The Old Home (take 2) OP 1952
TTITLE18=Alabama Waltz (take 1)
TTITLE19=Alabama Waltz (take 2, false start)
TTITLE20=Alabama Waltz (take 3, false start)
TTITLE21=Alabama Waltz (take 4)
TTITLE22=Alabama Waltz (take 5)
TTITLE23=Alabama Waltz (take 6, false start)
TTITLE24=Alabama Waltz (take 7, false start)
TTITLE25=Alabama Waltz (take 8) OP 1950
TTITLE26=I'm Blue, I'm Lonesome (take 1)
TTITLE27=I'm Blue, I'm Lonesome (take 2)
TTITLE28=I'm Blue, I'm Lonesome (take 3)
TTITLE29=I'm Blue, I'm Lonesome (take 4)
TTITLE30=I'm Blue, I'm Lonesome (take 5)
TTITLE31=I'm Blue, I'm Lonesome (take 6) OP 1950
TTITLE32=I'll Meet You In Church Sunday Morning (take 1, false start)
TTITLE33=I'll Meet You In Church Sunday Morning (take 2)
TTITLE34=I'll Meet You In Church Sunday Morning (take 3) OP 1951
TTITLE35=I'll Meet You In Church Sunday Morning (take 4)
TTITLE36=Boat Of Love (take 1)
TTITLE37=Boat Of Love (take 2, false start)
TTITLE38=Boat Of Love (take 3)
TTITLE39=Boat Of Love (take 4) OP 1950
EXTD=
EXTT0=
EXTT1=
EXTT2=
EXTT3=
EXTT4=
EXTT5=
EXTT6=
EXTT7=
EXTT8=
EXTT9=
EXTT10=
EXTT11=
EXTT12=
EXTT13=
EXTT14=
EXTT15=
EXTT16=
EXTT17=
EXTT18=
EXTT19=
EXTT20=
EXTT21=
EXTT22=
EXTT23=
EXTT24=
EXTT25=
EXTT26=
EXTT27=
EXTT28=
EXTT29=
EXTT30=
EXTT31=
EXTT32=
EXTT33=
EXTT34=
EXTT35=
EXTT36=
EXTT37=
EXTT38=
EXTT39=
PLAYORDER=
